<svg id="Layer_1" data-name="Layer 1" xmlns="http://www.w3.org/2000/svg" viewBox="0 0 562.45 565.6"><defs><style>.cls-1{fill:#3e66af;}.cls-2,.cls-9{fill:#fff;}.cls-2{stroke:#fff;stroke-miterlimit:8;stroke-width:0.11px;}.cls-3{fill:#fecc4e;}.cls-4{fill:#f2900e;}.cls-5{fill:#67757f;}.cls-6{fill:#2a2f34;}.cls-7{fill:#674510;}.cls-8{fill:#bfdff3;}</style></defs><path class="cls-1" d="M295.89,24.49a35.46,35.46,0,0,0-14,3.83L92.84,121.86a36.92,36.92,0,0,0-19.51,25.2L27,357a37.42,37.42,0,0,0,5.09,28.63c.65,1,1.33,2,2,3L164.81,557a35.64,35.64,0,0,0,28.2,13.8H402.55a36.26,36.26,0,0,0,28.23-14L561.35,388.37A37.21,37.21,0,0,0,568.14,357l-46.59-210.1A37,37,0,0,0,502,121.65L313.25,28.34a35.28,35.28,0,0,0-17.53-3.85Z" transform="translate(-26.12 -24.46)"/><path class="cls-2" d="M297.62,96a12.25,12.25,0,0,0-11.11,13v3.31a104,104,0,0,0,1.56,11.14,113.12,113.12,0,0,1,1.12,21.29,12.83,12.83,0,0,1-3.7,6.07l-.25,5a143.57,143.57,0,0,0-94.28,47l-4.07-3a8.51,8.51,0,0,1-6.71-.7A107.9,107.9,0,0,1,165,184.87a94.26,94.26,0,0,0-7.41-8.18L155,174.61a13.32,13.32,0,0,0-7.86-3.08,10.7,10.7,0,0,0-9,4.15A12.72,12.72,0,0,0,141,193l2.34,1.94a96,96,0,0,0,9.36,5.68,97.16,97.16,0,0,1,16.94,12.31,13.42,13.42,0,0,1,2.25,6.76l3.7,3.52a156.15,156.15,0,0,0-23,105.68l-4.75,1.4a15.68,15.68,0,0,1-4.85,5.07,101.77,101.77,0,0,1-20.26,3.47,89.82,89.82,0,0,0-10.86.88l-3,.7h-.34a11.73,11.73,0,0,0-9.7,13.3,12,12,0,0,0,3.13,6.62,11.09,11.09,0,0,0,11.61,2.9h.22l3.05-.35A88.82,88.82,0,0,0,126.91,359a103.72,103.72,0,0,1,19.71-6,12.1,12.1,0,0,1,6.49,2.38l5.09-.88a151.49,151.49,0,0,0,65.15,84.51l-2.07,4.48a12.12,12.12,0,0,1,1,6.62,114.43,114.43,0,0,1-10.23,19.21,101.46,101.46,0,0,0-6.07,9.38l-1.44,3.17a12,12,0,0,0,4.17,16.1,11,11,0,0,0,6.86,1.51,11.46,11.46,0,0,0,9.38-7.6l1.41-3a99.51,99.51,0,0,0,3.25-10.73c3-7.69,4.64-15.95,8.74-21.05a9,9,0,0,1,4.85-2.46l2.55-4.8a141.38,141.38,0,0,0,104.27.26l2.26,4.49a8.78,8.78,0,0,1,5.77,3.6A113.31,113.31,0,0,1,365.8,478a97.37,97.37,0,0,0,3.29,10.75l1.41,3a11.24,11.24,0,0,0,14.64,6.87,11.43,11.43,0,0,0,5.49-4.56,12.17,12.17,0,0,0,.28-12.34l-1.48-3.16a98.4,98.4,0,0,0-6.07-9.35,124.23,124.23,0,0,1-10.18-18.6,9.4,9.4,0,0,1,1.15-7,42.09,42.09,0,0,1-1.88-4.74c30.88-19.09,53.95-49.26,64.86-84.81l4.82.88a8.83,8.83,0,0,1,6.33-2.42,119.77,119.77,0,0,1,19.71,6,84.81,84.81,0,0,0,10.15,4c.81.22,2,.42,2.92.65h.22a11.29,11.29,0,0,0,14.31-7.6,12.23,12.23,0,0,0,0-7.38,11.45,11.45,0,0,0-9.23-7.84l-3.29-.81a89.65,89.65,0,0,0-10.86-.88,100,100,0,0,1-20.25-3.47,13,13,0,0,1-4.89-5.07l-4.58-1.4A156.65,156.65,0,0,0,419.1,223.21l4-3.84a9.49,9.49,0,0,1,2.1-6.65A106.83,106.83,0,0,1,442,200.48a94.13,94.13,0,0,0,9.36-5.69l2.48-2.07a12.05,12.05,0,0,0,3.67-16.24,11.48,11.48,0,0,0-5.92-4.91,11.07,11.07,0,0,0-11.81,2.83l-2.51,2.08a96,96,0,0,0-7.42,8.18,107.78,107.78,0,0,1-14.81,14.48,12.19,12.19,0,0,1-6.85.77l-4.3,3.17a146.18,146.18,0,0,0-93.91-47c0-1.76-.22-4.4-.25-5.23A9.23,9.23,0,0,1,306,145a114.22,114.22,0,0,1,1.29-21.23,102.21,102.21,0,0,0,1.56-11.14v-3.52a12.23,12.23,0,0,0-11.11-13Zm-14.15,90.9-3.39,61.46h-.25a10.61,10.61,0,0,1-5.64,8.86A9.3,9.3,0,0,1,264,256.3l-48.6-35.71a115.22,115.22,0,0,1,56-31.66,114,114,0,0,1,12-2Zm28.3,0a115.82,115.82,0,0,1,67.7,33.85l-48.15,35.49a9.69,9.69,0,0,1-10.49,1.27,10.41,10.41,0,0,1-5.7-9.22Zm-114,56.78,44.45,41.13v.27a10.58,10.58,0,0,1,3.16,10.1,10.19,10.19,0,0,1-7.08,7.65V303l-57,17a124.29,124.29,0,0,1,16.53-76.36Zm199.41,0a126.58,126.58,0,0,1,17,76.13L357,302.77v-.23a10.06,10.06,0,0,1-7.07-7.65,10.65,10.65,0,0,1,3.15-10.1l44.11-40.94ZM288.51,288.05H306.7l11.11,14.64-4,18.29-16.34,8.15L281.07,321l-3.86-18.29ZM346.78,338a9.72,9.72,0,0,1,2.29,0l58.82,10.29a119.27,119.27,0,0,1-47.08,61.46l-22.74-57.07a10.54,10.54,0,0,1,5.32-13.61,9.8,9.8,0,0,1,3.32-.81Zm-98.8.26a9.91,9.91,0,0,1,8.21,4.72,10.6,10.6,0,0,1,.8,9.68v.23l-22.6,56.62a120.45,120.45,0,0,1-46.79-60.83l58.31-10.26a9.27,9.27,0,0,1,2,0Zm49.27,24.64a9.93,9.93,0,0,1,9.11,5.42h.22l28.74,53.79-11.48,3.51a112.93,112.93,0,0,1-63.76-3.41l28.84-53.79a10,10,0,0,1,8.48-5.19Z" transform="translate(-26.12 -24.46)"/><g id="vCGSF6"><path class="cls-3" d="M412.55,226.59h30.29l13.86,2.57,15.42,3.51,15.08,5.19L517.52,254l4.09,2.87,11,8.85,7,6.32,8.1,8.36,5.82,6.85,8.5,12,2.76,4.31q3.75,6.93,7.49,13.88,2.85,6.19,5.68,12.4l1,2.84,4.65,15.19L586.9,363q.75,7.54,1.49,15.07A202.56,202.56,0,0,1,585,423.44l-4,15.1q-6.5,14.67-13,29.33l-5.11,8.79q-2.57,3.66-5.12,7.34a2.56,2.56,0,0,0-.77.24c.94-11.52,1.83-23.05,2.85-34.56q3.28-37.32,6.69-74.62c10.24-7,13.27-14.75,9.6-24.67-2.88-7.8-9.17-11.07-17-12.32-3-18.76-11.11-34.56-25.74-46.94-25.25-21.38-65.94-21.56-91-.11-27.28,23.37-34.06,60.26-15.88,91.39,12.29,21,31.31,33,55.67,34.85,26.34,2,47.6-8.38,63.71-29.29a37.75,37.75,0,0,1,0,4q-3.71,42-7.5,83.9c-1,11-2.31,21.91-3.48,32.86l-18.44,14.68-9.38,6-5.77,3.1L487,539l-15.23,5.2L457,547.73l-15.11,2.08-4.11-.2c2.89-8.45,3.71-16.39-6.21-21.62,5.74-3.78,9-8.11,9.4-14.61.44-7-4-10.82-8.79-15,5.95-1.49,11.42-2.88,16.9-4.23,13.23-3.28,26.54-6.27,39.67-9.91,7.77-2.15,10.9-8.73,9.14-16.43-2.16-9.46-9.27-12-15.81-10.75-9.78,1.93-19.43,4.47-29.13,6.75.63-4.39-.64-7.94-4.57-10.32-11.24-6.79-23.34-11.58-36.55-10.65-9.89.7-19.65,3.43-29.46,5.26-.71-4.27-1.17-8.61-2.18-12.81-2.6-10.9-7.39-20.63-17.43-26.49-8.25-4.82-19.15-2.85-19.66,7.93-.18,3.86,1.45,7.82,2.32,11.72,3.28,14.76,1.41,28.1-10.42,38.85a135,135,0,0,0-12.44,12.3c-5,5.95-9.48,12.4-14.18,18.64q-6.33-7.14-12.64-14.29l-5.18-7.21-4.43-7.8-13.71-30.36-4.05-15.16q-1.38-8.26-2.78-16.52l-.57-9.7V378l1.63-15q1.44-7.49,2.86-15l-.08-.11.7-1.19q2.16-7,4.31-14.09l1.76-4.13q2.08-5,4.16-10,4.31-8,8.6-15.92c.5-.75,1-1.5,1.49-2.25q4.68-6.51,9.35-13,3-3.48,5.9-6.95l8.06-8.28,6.93-6.2,11.16-9,4.11-2.8c9.52-5.43,18.28-12.29,29-15.42a4.88,4.88,0,0,0,1.21-.82l15.09-5.2,15.27-3.5ZM349.08,341.75c1.22,5.17,1.93,10.53,3.77,15.47,3.1,8.27,8.52,14.64,18,15.42,8.09.67,14.32-3.38,18.62-9.85,9.32-14.05,11-29.1,3.37-44.3-7.3-14.53-22.5-16.19-33.37-4.22C352.47,322,350.05,331.39,349.08,341.75Zm63.35-51.29c-1.46-3.45-1.9-6-3.35-7.64-6.17-7-11.76-14.95-19.15-20.39-20.64-15.2-43.78-8.76-60.1,4.93-3.66,3.08-3.57,8.35-.63,12.33a8.83,8.83,0,0,0,11.25,2.57,43.54,43.54,0,0,0,5-3.24c15.45-10.13,30.28-7.9,41.85,6.38,2.74,3.38,5.12,7.07,8,10.35s6.79,4.43,10.4,2.08C408.49,296,410.36,292.81,412.43,290.46Z" transform="translate(-26.12 -24.46)"/><path class="cls-4" d="M452.91,463.79c9.7-2.28,19.35-4.82,29.13-6.75,6.54-1.28,13.65,1.29,15.81,10.75,1.76,7.7-1.37,14.28-9.14,16.43-13.13,3.64-26.44,6.63-39.67,9.91-5.48,1.35-11,2.74-16.9,4.23,4.78,4.2,9.23,8,8.79,15-.41,6.5-3.66,10.83-9.4,14.61,9.92,5.23,9.1,13.17,6.21,21.62-2.89,2.19-5.77,4.38-8.45,6.43l4.46,4.71c1.2,5.21-.16,9.85-3.16,14.12l-5.16,4-13.88,4.4L395.28,587l-13,3.1H362.07L351,586.52l-15.17-7.46L330,574.81l-9.31-9.1-4.2-5.92-7.36-15.18q-1.4-5-2.8-10-.8-5.25-1.61-10.5c-.11-3.24-.23-6.48-.34-9.73l1.9-9.18c.67-2.32,1.35-4.64,2-7,4.7-6.24,9.15-12.69,14.18-18.64A135,135,0,0,1,335,467.28c11.83-10.75,13.7-24.09,10.42-38.85-.87-3.9-2.5-7.86-2.32-11.72.51-10.78,11.41-12.75,19.66-7.93,10,5.86,14.83,15.59,17.43,26.49,1,4.2,1.47,8.54,2.18,12.81q-1,7.73-1.91,15.44l-9.86,16.87c3.72,2,38.67-4.8,64.11-12.52Z" transform="translate(-26.12 -24.46)"/><path class="cls-5" d="M545.9,388c-16.11,20.91-37.37,31.27-63.71,29.29-24.36-1.83-43.38-13.81-55.67-34.85-18.18-31.13-11.4-68,15.88-91.39,25-21.45,65.73-21.27,91,.11,14.63,12.38,22.71,28.18,25.74,46.94,7.85,1.25,14.14,4.52,17,12.32,3.67,9.92.64,17.64-9.6,24.67-6.25,1.67-12.41,1.85-18.75-1.85C547.1,378.56,546.5,383.26,545.9,388Zm-8.65-58.55A46.47,46.47,0,0,0,519.9,305a12.75,12.75,0,0,0-1.69-1.75A52.64,52.64,0,0,0,455.06,305c-19.49,15.21-25.66,44.52-13.7,65.05,4.78,9.09,11.23,16.56,20.55,21.27a26.9,26.9,0,0,0,2.81,2c25,13,58,1.88,70.13-23.72C541,356.59,543,343.21,537.25,329.42Z" transform="translate(-26.12 -24.46)"/><path class="cls-6" d="M545.9,388c.6-4.71,1.2-9.41,1.89-14.76,6.34,3.7,12.5,3.52,18.75,1.85q-3.36,37.31-6.69,74.62c-1,11.51-1.91,23-2.85,34.56l-1.86,18c0,.68-.07,1.36-.1,2l-.09,1v0l-.72,7c-.06,1-.13,2-.19,3.06q-.91,9.57-1.82,19.15l-.41,6c-1.39,5.16.11,11.34-5.26,15.13-6.63,2.31-8.87,1.69-13.86-3.87-.3-2.35-.61-4.71-.91-7.06l1-11,2.19-25c1.17-10.95,2.47-21.89,3.48-32.86q3.87-41.94,7.5-83.9A37.75,37.75,0,0,0,545.9,388Z" transform="translate(-26.12 -24.46)"/><path class="cls-7" d="M349.08,341.75c1-10.36,3.39-19.74,10.41-27.48,10.87-12,26.07-10.31,33.37,4.22,7.62,15.2,5.95,30.25-3.37,44.3-4.3,6.47-10.53,10.52-18.62,9.85-9.5-.78-14.92-7.15-18-15.42C351,352.28,350.3,346.92,349.08,341.75Z" transform="translate(-26.12 -24.46)"/><path class="cls-7" d="M412.43,290.46c-2.07,2.35-3.94,5.57-6.72,7.37-3.61,2.35-7.58,1.16-10.4-2.08s-5.23-7-8-10.35c-11.57-14.28-26.4-16.51-41.85-6.38a43.54,43.54,0,0,1-5,3.24,8.83,8.83,0,0,1-11.25-2.57c-2.94-4-3-9.25.63-12.33,16.32-13.69,39.46-20.13,60.1-4.93,7.39,5.44,13,13.38,19.15,20.39C410.53,284.47,411,287,412.43,290.46Z" transform="translate(-26.12 -24.46)"/><path class="cls-7" d="M380.42,463.52q.94-7.72,1.91-15.44c9.81-1.83,19.57-4.56,29.46-5.26,13.21-.93,25.31,3.86,36.55,10.65,3.93,2.38,5.2,5.93,4.57,10.32l-18.24,4.08c-13.63-8-27.87-8.07-42.43-3.1C388,466.21,384.07,466.68,380.42,463.52Z" transform="translate(-26.12 -24.46)"/><path class="cls-3" d="M380.42,463.52c3.65,3.16,7.6,2.69,11.82,1.25,14.56-5,28.8-4.86,42.43,3.1-25.44,7.72-60.39,14.52-64.11,12.52Z" transform="translate(-26.12 -24.46)"/><path class="cls-8" d="M441.36,370.07c-12-20.53-5.79-49.84,13.7-65.05a52.64,52.64,0,0,1,63.15-1.79A12.75,12.75,0,0,1,519.9,305c-15.94,13.44-31.82,27-47.85,40.29C461.94,353.68,451.6,361.81,441.36,370.07Z" transform="translate(-26.12 -24.46)"/><path class="cls-9" d="M441.36,370.07c10.24-8.26,20.58-16.39,30.69-24.8,16-13.33,31.91-26.85,47.85-40.29a46.47,46.47,0,0,1,17.35,24.44,21.29,21.29,0,0,0-3.89,2c-11.24,9.21-22.49,18.44-33.62,27.79-12.67,10.64-25.23,21.41-37.83,32.13C452.59,386.63,446.14,379.16,441.36,370.07Z" transform="translate(-26.12 -24.46)"/><path class="cls-8" d="M461.91,391.34c12.6-10.72,25.16-21.49,37.83-32.13,11.13-9.35,22.38-18.58,33.62-27.79a21.29,21.29,0,0,1,3.89-2c5.79,13.79,3.75,27.17-2.4,40.18-12.1,25.6-45.14,36.72-70.13,23.72A26.9,26.9,0,0,1,461.91,391.34Z" transform="translate(-26.12 -24.46)"/></g></svg>